%TF.GenerationSoftware,KiCad,Pcbnew,10.0.3*%
%TF.CreationDate,2026-07-02T02:08:51-07:00*%
%TF.ProjectId,day1,64617931-2e6b-4696-9361-645f70636258,rev?*%
%TF.SameCoordinates,Original*%
%TF.FileFunction,Drillmap*%
%TF.FilePolarity,Positive*%
%FSLAX45Y45*%
G04 Gerber Fmt 4.5, Leading zero omitted, Abs format (unit mm)*
G04 Created by KiCad (PCBNEW 10.0.3) date 2026-07-02 02:08:51*
%MOMM*%
%LPD*%
G01*
G04 APERTURE LIST*
%ADD10C,0.050000*%
%ADD11C,0.200000*%
G04 APERTURE END LIST*
D10*
X16020000Y-10485000D02*
G75*
G02*
X11128323Y-10485000I-2445838J0D01*
G01*
X11128323Y-10485000D02*
G75*
G02*
X16020000Y-10485000I2445838J0D01*
G01*
D11*
X11386600Y-13244822D02*
X11386600Y-13044822D01*
X11386600Y-13044822D02*
X11434219Y-13044822D01*
X11434219Y-13044822D02*
X11462791Y-13054346D01*
X11462791Y-13054346D02*
X11481838Y-13073393D01*
X11481838Y-13073393D02*
X11491362Y-13092441D01*
X11491362Y-13092441D02*
X11500886Y-13130536D01*
X11500886Y-13130536D02*
X11500886Y-13159108D01*
X11500886Y-13159108D02*
X11491362Y-13197203D01*
X11491362Y-13197203D02*
X11481838Y-13216251D01*
X11481838Y-13216251D02*
X11462791Y-13235298D01*
X11462791Y-13235298D02*
X11434219Y-13244822D01*
X11434219Y-13244822D02*
X11386600Y-13244822D01*
X11586600Y-13244822D02*
X11586600Y-13111489D01*
X11586600Y-13149584D02*
X11596124Y-13130536D01*
X11596124Y-13130536D02*
X11605648Y-13121012D01*
X11605648Y-13121012D02*
X11624695Y-13111489D01*
X11624695Y-13111489D02*
X11643743Y-13111489D01*
X11710410Y-13244822D02*
X11710410Y-13111489D01*
X11710410Y-13044822D02*
X11700886Y-13054346D01*
X11700886Y-13054346D02*
X11710410Y-13063870D01*
X11710410Y-13063870D02*
X11719933Y-13054346D01*
X11719933Y-13054346D02*
X11710410Y-13044822D01*
X11710410Y-13044822D02*
X11710410Y-13063870D01*
X11834219Y-13244822D02*
X11815172Y-13235298D01*
X11815172Y-13235298D02*
X11805648Y-13216251D01*
X11805648Y-13216251D02*
X11805648Y-13044822D01*
X11938981Y-13244822D02*
X11919933Y-13235298D01*
X11919933Y-13235298D02*
X11910410Y-13216251D01*
X11910410Y-13216251D02*
X11910410Y-13044822D01*
X12167553Y-13244822D02*
X12167553Y-13044822D01*
X12167553Y-13044822D02*
X12234219Y-13187679D01*
X12234219Y-13187679D02*
X12300886Y-13044822D01*
X12300886Y-13044822D02*
X12300886Y-13244822D01*
X12481838Y-13244822D02*
X12481838Y-13140060D01*
X12481838Y-13140060D02*
X12472314Y-13121012D01*
X12472314Y-13121012D02*
X12453267Y-13111489D01*
X12453267Y-13111489D02*
X12415172Y-13111489D01*
X12415172Y-13111489D02*
X12396124Y-13121012D01*
X12481838Y-13235298D02*
X12462791Y-13244822D01*
X12462791Y-13244822D02*
X12415172Y-13244822D01*
X12415172Y-13244822D02*
X12396124Y-13235298D01*
X12396124Y-13235298D02*
X12386600Y-13216251D01*
X12386600Y-13216251D02*
X12386600Y-13197203D01*
X12386600Y-13197203D02*
X12396124Y-13178155D01*
X12396124Y-13178155D02*
X12415172Y-13168632D01*
X12415172Y-13168632D02*
X12462791Y-13168632D01*
X12462791Y-13168632D02*
X12481838Y-13159108D01*
X12577076Y-13111489D02*
X12577076Y-13311489D01*
X12577076Y-13121012D02*
X12596124Y-13111489D01*
X12596124Y-13111489D02*
X12634219Y-13111489D01*
X12634219Y-13111489D02*
X12653267Y-13121012D01*
X12653267Y-13121012D02*
X12662791Y-13130536D01*
X12662791Y-13130536D02*
X12672314Y-13149584D01*
X12672314Y-13149584D02*
X12672314Y-13206727D01*
X12672314Y-13206727D02*
X12662791Y-13225774D01*
X12662791Y-13225774D02*
X12653267Y-13235298D01*
X12653267Y-13235298D02*
X12634219Y-13244822D01*
X12634219Y-13244822D02*
X12596124Y-13244822D01*
X12596124Y-13244822D02*
X12577076Y-13235298D01*
X12758029Y-13225774D02*
X12767553Y-13235298D01*
X12767553Y-13235298D02*
X12758029Y-13244822D01*
X12758029Y-13244822D02*
X12748505Y-13235298D01*
X12748505Y-13235298D02*
X12758029Y-13225774D01*
X12758029Y-13225774D02*
X12758029Y-13244822D01*
X12758029Y-13121012D02*
X12767553Y-13130536D01*
X12767553Y-13130536D02*
X12758029Y-13140060D01*
X12758029Y-13140060D02*
X12748505Y-13130536D01*
X12748505Y-13130536D02*
X12758029Y-13121012D01*
X12758029Y-13121012D02*
X12758029Y-13140060D01*
M02*
